# xmcd
#
# Track frame offsets:
#	150
#	14784
#	39129
#	54812
#	73087
#	89238
#	109317
#	123341
#	144111
#	169692
#	182374
#	200506
#	220442
#	242697
#	258947
#	281536
#	306656
#	321627
#
# Disc length: 4482 seconds
#
# Revision: 0
# Processed by: cddbd v1.5.2PL0 Copyright (c) Steve Scherf et al.
# Submitted via: EasyCDDAExtractor 16.0.6.1
#
DISCID=10118012
DTITLE=Συλλογικός δίσκος - The best disco in town 4
DYEAR=1996
DGENRE=Disco
TTITLE0=Gloria Gaynor - I will survive
TTITLE1=Bonnie Pointer - I can't help myself
TTITLE2=Van McCoy - The hustle
TTITLE3=Dennis Edwards - Don't look any further
TTITLE4=Gary Low - You're a danger
TTITLE5=Boney M. - Rasputin
TTITLE6=Tina Charles - I love to love
TTITLE7=Love and Kisses - Accidental Lover
TTITLE8=Captain Sensible - Wot
TTITLE9=5000 Volts - I'm on fire
TTITLE10=Michael Sembello - Maniac
TTITLE11=The Real Thing - You to me are everything
TTITLE12=Odyssey - Use it up wear it out
TTITLE13=Barry White - Let the music play
TTITLE14=Carol Douglas - Doctor's orders
TTITLE15=Alicia Bridges - I love the nightlife
TTITLE16=Johnny Bristol - Hang on in there baby
TTITLE17=Rick Dees and his Cast Of Idiots - Disco Duck
EXTD=
EXTT0=
EXTT1=
EXTT2=
EXTT3=
EXTT4=
EXTT5=
EXTT6=
EXTT7=
EXTT8=
EXTT9=
EXTT10=
EXTT11=
EXTT12=
EXTT13=
EXTT14=
EXTT15=
EXTT16=
EXTT17=
PLAYORDER=
